<?xml version="1.0" encoding="utf-8"?>
<!-- Svg Vector Icons : http://www.onlinewebfonts.com/icon -->
<!DOCTYPE svg PUBLIC "-//W3C//DTD SVG 1.1//EN" "http://www.w3.org/Graphics/SVG/1.1/DTD/svg11.dtd">
<svg version="1.1" xmlns="http://www.w3.org/2000/svg" xmlns:xlink="http://www.w3.org/1999/xlink" x="0px" y="0px" viewBox="0 0 1000 1000" enable-background="new 0 0 1000 1000" xml:space="preserve">
<metadata> Svg Vector Icons : http://www.onlinewebfonts.com/icon </metadata>
<g><path d="M500,10C230.5,10,10,230.5,10,500c0,269.5,220.5,490,490,490c46.3,0,81.7-35.4,81.7-81.7c0-21.8-8.2-40.8-21.8-54.4c-13.6-13.6-21.8-32.7-21.8-54.4c0-46.3,35.4-81.7,81.7-81.7h98c149.7,0,272.2-122.5,272.2-272.2C990,206,769.5,10,500,10z M200.6,500c-46.3,0-81.7-35.4-81.7-81.7s35.4-81.7,81.7-81.7c46.3,0,81.7,35.4,81.7,81.7S246.8,500,200.6,500z M363.9,282.2c-46.3,0-81.7-35.4-81.7-81.7c0-46.3,35.4-81.7,81.7-81.7c46.3,0,81.7,35.4,81.7,81.7C445.6,246.8,410.2,282.2,363.9,282.2z M636.1,282.2c-46.3,0-81.7-35.4-81.7-81.7c0-46.3,35.4-81.7,81.7-81.7c46.3,0,81.7,35.4,81.7,81.7C717.8,246.8,682.4,282.2,636.1,282.2z M799.4,500c-46.3,0-81.7-35.4-81.7-81.7s35.4-81.7,81.7-81.7c46.3,0,81.7,35.4,81.7,81.7S845.7,500,799.4,500z"/></g>
</svg>