<?xml version="1.0" encoding="UTF-8"?><svg id="Layer_1" xmlns="http://www.w3.org/2000/svg" viewBox="0 0 941.18 629.41"><defs><style>.cls-1{fill:#fff;}.cls-2{fill:#c01722;}</style></defs><g><path class="cls-2" d="M46.03,17.85H903.75c13.87,0,25.13,11.26,25.13,25.13V590.71c0,13.87-11.26,25.13-25.13,25.13H46.03c-13.87,0-25.13-11.26-25.13-25.13V42.99c0-13.87,11.26-25.13,25.13-25.13Z"/><path class="cls-2" d="M903.75,18.86c13.3,0,24.13,10.82,24.13,24.13V590.71c0,13.3-10.82,24.13-24.13,24.13H46.03c-13.3,0-24.13-10.82-24.13-24.13V42.99c0-13.3,10.82-24.13,24.13-24.13H903.75m0-2.01H46.03c-14.44,0-26.14,11.7-26.14,26.14V590.71c0,14.44,11.7,26.14,26.14,26.14H903.75c14.44,0,26.14-11.7,26.14-26.14V42.99c0-14.44-11.7-26.14-26.14-26.14h0Z"/></g><rect class="cls-1" x="24.89" y="139.86" width="900" height="440.16" rx="9.8" ry="9.8"/><path class="cls-1" d="M119.31,55.28l-12.55,7.69c-4.18-6.33-10.72-10.09-18.93-10.09-13.23,0-23.11,9.73-23.11,23.95s10.2,23.95,23.11,23.95c8.16,0,14.69-3.61,19.09-10.04l11.92,8.58c-6.59,9.52-17.47,15.48-30.9,15.48-22.59,0-38.43-15.95-38.43-37.96s15.84-37.96,38.43-37.96c13.54,0,25.36,6.22,31.38,16.42Z"/><path class="cls-1" d="M165.42,62.49l-2.04,13.54c-2.25-.99-5.49-1.62-8.26-1.62-6.27,0-10.67,3.87-10.67,11.4v27.61h-13.65V62.76h13.23v5.54c3.19-4.81,8-6.9,14.28-6.9,2.93,0,5.23,.42,7.11,1.1Z"/><path class="cls-1" d="M174.72,113.43V62.76h13.65v50.67h-13.65Z"/><path class="cls-1" d="M230.27,113.43c-19.37,.06-28.82-8.01-28.82-22.95V37.39h15.75v17.08h13.1v13.76h-13.1v20.99c0,7.12,4.82,9.79,13.36,9.79l-.29,14.41Z"/><path class="cls-1" d="M241.47,113.43V62.76h13.65v50.67h-13.65Z"/><path class="cls-1" d="M313.58,70.97l-9.83,8.21c-3.14-3.35-6.38-5.07-10.82-5.07-7.06,0-12.71,5.54-12.71,13.96s5.6,13.96,12.65,13.96c4.39,0,8.1-1.99,11.03-5.12l9.73,8.31c-4.81,6.12-11.82,9.52-20.34,9.52-16.16,0-26.98-11.35-26.98-26.67s10.82-26.67,26.98-26.67c8.52,0,15.64,3.45,20.29,9.57Z"/><path class="cls-1" d="M358.96,113.43v-5.6c-3.35,4.13-8.21,6.9-15.16,6.9-14.01,0-24.52-11.45-24.52-26.67s10.51-26.67,24.52-26.67c6.96,0,11.82,2.77,15.16,6.95v-5.6h13.33v50.67h-13.33Zm-25.73-25.36c0,7.74,5.07,13.96,13.07,13.96s13.07-5.96,13.07-13.96-5.28-13.96-13.07-13.96-13.07,6.22-13.07,13.96Z"/><path class="cls-1" d="M386.62,113.43V38.13h13.65V113.43h-13.65Z"/><rect class="cls-1" x="174.72" y="37.39" width="13.65" height="13.65"/><rect class="cls-1" x="241.47" y="37.39" width="13.65" height="13.65"/><g><path class="cls-2" d="M125.45,317.3l-.78,10.76c-.57,8.19-.6,14.31-.09,18.38,.41,3.25,1.34,5.84,2.77,7.77-3.14,2.05-6.07,3.24-8.78,3.59-4.16,.53-6.58-1.9-7.26-7.27-.31-2.44-.15-8.05,.49-16.85l1.09-14.79c-6.89,1.42-14.71,3.38-23.44,5.86l-3.46,.99c-6.22,1.71-9.93,2.63-11.15,2.79-3.35,.42-5.17-.56-5.47-2.96-.23-1.81-.26-4.45-.1-7.91,11.38-20.48,18.4-41.74,21.08-63.78,4.15-1.67,7.45-2.66,9.89-2.97,2.21-.28,3.43,.4,3.63,2.02,.39,3.12-2.07,11.25-7.39,24.39-5.32,13.14-11.46,26.21-18.4,39.23,12.75-4.14,24.63-7.36,35.64-9.67l1.92-26.74c.15-2.41,.26-3.94,.31-4.59,.25-3.07,.28-5.44,.07-7.12-.24-1.86-.62-3.46-1.16-4.82,2.46-1.23,4.73-1.98,6.81-2.24,4.21-.53,6.56,1.22,7.07,5.25,.21,1.63,.04,5.56-.51,11.8-.28,3.58-.47,5.9-.56,6.97l-1.41,19.92c2.01-.44,3.81-.76,5.39-.96,7.14-.9,11.92-.44,14.33,1.39s4.41,6.48,6,13.95c-5.91-2.38-14.75-3.16-26.55-2.36Z"/><path class="cls-2" d="M196.17,347.98c-8.86,1.12-16.35-1.32-22.46-7.32-6.11-6-9.88-14.63-11.3-25.89-2.34-18.49,.87-35.19,9.62-50.1,8.75-14.91,20.27-23.27,34.55-25.07,9.31-1.18,17.04,1.22,23.17,7.2,6.13,5.98,9.93,14.8,11.41,26.46,2.34,18.49-.94,35.11-9.82,49.85-8.88,14.74-20.61,23.04-35.16,24.88Zm4.61-8.23c8.77-1.11,15.78-7.84,21.01-20.19,5.24-12.35,6.9-26.06,5-41.11-2.79-22.06-10.97-32.24-24.53-30.52-8.77,1.11-15.71,7.79-20.83,20.03-5.11,12.25-6.71,25.99-4.78,41.22,2.79,22.06,10.83,32.25,24.12,30.57Z"/><path class="cls-2" d="M312.9,293.6l-.77,10.76c-.57,8.19-.6,14.32-.09,18.38,.41,3.25,1.33,5.84,2.77,7.77-3.14,2.05-6.07,3.24-8.78,3.59-4.16,.53-6.58-1.9-7.26-7.27-.31-2.44-.15-8.05,.49-16.84l1.09-14.79c-6.89,1.42-14.71,3.38-23.44,5.86l-3.46,.99c-6.22,1.71-9.93,2.63-11.15,2.79-3.35,.42-5.17-.56-5.47-2.96-.23-1.81-.26-4.45-.1-7.91,11.38-20.48,18.4-41.74,21.08-63.78,4.15-1.67,7.45-2.66,9.89-2.97,2.21-.28,3.43,.4,3.63,2.02,.39,3.12-2.07,11.25-7.39,24.39-5.32,13.14-11.45,26.21-18.4,39.23,12.75-4.14,24.63-7.36,35.64-9.67l1.92-26.74c.15-2.41,.26-3.94,.31-4.59,.25-3.07,.28-5.44,.06-7.12-.23-1.86-.62-3.46-1.16-4.82,2.46-1.23,4.73-1.98,6.81-2.24,4.21-.53,6.56,1.22,7.07,5.25,.21,1.63,.04,5.56-.51,11.8-.28,3.58-.47,5.9-.56,6.97l-1.41,19.92c2.01-.44,3.81-.76,5.39-.96,7.14-.9,11.92-.44,14.34,1.39,2.41,1.83,4.41,6.48,6,13.95-5.91-2.38-14.75-3.16-26.55-2.36Z"/><path d="M495.12,251.33c-8.62,19.74-18.39,35.66-29.31,47.77-10.92,12.11-21.62,18.82-32.11,20.15-8.73,1.1-16.18-.99-22.36-6.27-6.18-5.28-9.87-12.69-11.08-22.23-1.59-12.57,1.71-24.11,9.88-34.63,8.18-10.52,18.57-16.58,31.19-18.17,5.11-.65,9.43-.19,12.95,1.36,3.53,1.55,5.48,3.84,5.87,6.87,.63,4.97-3.13,9.24-11.27,12.79,.31-1.14,.41-2.21,.28-3.21-.93-7.33-5.28-10.5-13.05-9.51-6.74,.85-12.47,5.4-17.19,13.65-4.72,8.25-6.52,16.84-5.39,25.8,.92,7.28,3.56,12.98,7.91,17.09,4.36,4.11,9.56,5.78,15.62,5.02,16.64-2.1,33.94-21.82,51.92-59.14l6.12,2.67Z"/><path d="M536.29,260.32c-4.28,12.71-10.13,23.8-17.56,33.26-7.43,9.46-14.29,14.59-20.58,15.38-4.8,.61-8.9-1.04-12.32-4.95-3.41-3.91-5.57-9.41-6.47-16.51-1.79-14.15,.92-27.15,8.14-39,7.22-11.84,16.46-18.48,27.73-19.91,6.83-.86,14.5,.33,23.01,3.57,.64-4.35,5.17-7.06,13.58-8.13,.54-.07,1.43-.16,2.65-.27-2.08,4.26-3.37,9.89-3.86,16.89l-.42,5.91c-.5,6.59-.21,14.17,.88,22.76,1.25,9.9,4.18,14.56,8.8,13.98,4.88-.62,11.05-5.54,18.49-14.78,7.45-9.23,14.46-20.67,21.05-34.32l5.75,2.99c-6.48,15.98-14.47,29.63-23.97,40.96-9.5,11.33-18.12,17.48-25.85,18.46-9.77,1.23-15.68-6.29-17.74-22.56-.43-3.39-.87-7.97-1.33-13.75Zm1.14-16.61c-10.29-4.99-18.58-7.09-24.88-6.29-6.84,.86-12.22,5.76-16.15,14.69-3.93,8.93-5.18,19.09-3.74,30.48,1.15,9.13,4.72,13.32,10.7,12.57,6.47-.82,17.06-16.58,31.76-47.29,.18-.39,.95-1.77,2.3-4.15Z"/><path d="M609.76,292.65c-2.91,1.84-5.29,2.88-7.15,3.11-4.63,.59-7.21-1.16-7.72-5.23-.26-2.08-.1-7.36,.48-15.84l1.26-17.32c.81-10.3,.91-17.87,.3-22.71-.33-2.62-1.35-4.72-3.07-6.29,4.54-2.23,8.3-3.53,11.29-3.91,3.16-.4,5,1.41,5.51,5.44,.31,2.49,.02,9.16-.89,20.02l-1.34,20.22c6.44-17.67,13.4-31.66,20.89-41.95,7.49-10.29,14.75-15.89,21.8-16.78,2.48-.31,4.72,.13,6.71,1.32,1.99,1.2,3.11,2.81,3.37,4.85,.4,3.17-2.5,7.8-8.71,13.92-2.17-3.35-4.83-4.83-7.99-4.43-5.74,.73-12.28,7.75-19.63,21.09-4.55,8.29-8.34,16.73-11.39,25.31-3.04,8.58-4.35,14.6-3.91,18.03l.21,1.14Z"/><path d="M720.77,238.79c-5.45,13.6-11.55,24.6-18.32,33.01-6.77,8.41-13.18,13-19.24,13.77-4.84,.61-8.95-1.02-12.33-4.88-3.38-3.87-5.52-9.35-6.42-16.45-1.81-14.29,.86-27.34,8-39.15,7.14-11.81,16.34-18.43,27.6-19.85,6.74-.85,14.35,.37,22.86,3.66l2.64-37.41c-3.88,1.32-7.12,2.15-9.75,2.48-3.98,.5-7.01-.07-9.11-1.72-2.09-1.65-4.03-5-5.82-10.03,3.54,1.8,8.67,2.28,15.41,1.43,8.36-1.06,16.24-3.61,23.63-7.67l-5.39,76.2c-.62,8.53-.56,15.71,.17,21.54,.98,7.78,3.69,11.39,8.12,10.82,4.34-.55,10.92-6.55,19.74-18,8.82-11.45,15.89-23.16,21.22-35.14l6.01,2.82c-6.18,15.76-14.57,30.21-25.15,43.35-10.58,13.14-19.46,20.17-26.65,21.08-9.13,1.15-14.63-5.59-16.48-20.24-.77-6.06-1.02-12.59-.76-19.61Zm1.32-18.43c-10.19-5-18.4-7.11-24.64-6.32-6.78,.86-12.12,5.76-16.02,14.7-3.9,8.95-5.13,19.09-3.7,30.44,1.15,9.13,4.72,13.32,10.68,12.57,6.42-.81,16.97-16.57,31.65-47.27,.25-.54,.93-1.91,2.03-4.12Z"/><path d="M815.28,242.89c1.97,3.24,3.15,6.42,3.55,9.54,.88,6.92-1.26,13.31-6.4,19.17-5.14,5.86-11.6,9.29-19.37,10.27-4.57,.58-8.6-.11-12.11-2.05-3.51-1.94-5.47-4.57-5.89-7.87-.45-3.53,1.31-7.38,5.26-11.55,3.95-4.17,10.79-9.4,20.51-15.69l-6.53-8.06c-7.94-9.79-12.29-17.67-13.05-23.64-1.09-8.59,3.03-16.14,12.36-22.65,6.44,1.57,9.89,4.15,10.35,7.72,.64,5.06-2.66,10.42-9.89,16.06l9.53,13.26,7.42,10.22c7.98-6.25,13.94-11.49,17.86-15.73,3.92-4.24,8.74-10.62,14.46-19.16l5.85,2.64c-8.08,14.25-19.38,26.75-33.91,37.5Zm-10.76,7.56c-12.39,8.82-18.33,15.2-17.84,19.14,.47,3.71,3.39,5.22,8.77,4.54,3.98-.5,7.04-2.26,9.19-5.26s2.95-6.63,2.41-10.88c-.32-2.53-1.17-5.04-2.54-7.53Z"/><path d="M116.46,500.11c11.76-35.98,24.03-54.79,36.83-56.4,9.99-1.26,16.25,8.05,18.76,27.95l1.17,8.19c1.2,9.5,2.52,16,3.95,19.52,1.43,3.52,3.44,5.11,6.01,4.79,3.89-.49,7.92-4.15,12.08-10.97s10.65-20.3,19.45-40.43l6.12,2.6c-7.57,20.02-14.72,35.07-21.44,45.16s-13.2,15.52-19.44,16.31c-5.74,.73-10.13-1.54-13.16-6.81-3.03-5.27-5.41-14.75-7.15-28.45l-.8-5.82c-.94-7.42-2.07-12.57-3.4-15.45-1.33-2.89-3.17-4.18-5.52-3.88-5.97,.75-14.07,13.88-24.3,39.38-2.52,6.24-4.15,10.26-4.88,12.06-2.72,6.5-3.9,11.1-3.56,13.82,.14,1.08,.56,2.09,1.28,3.01-2.48,1.42-4.63,2.24-6.44,2.47-4.57,.58-7.17-1.67-7.81-6.73-.18-1.45-.42-8.03-.71-19.75l-.37-14.91c-.11-6.33-.38-11.21-.82-14.64-.61-4.79-2.17-8.43-4.69-10.91,.91-.44,2.42-1.18,4.54-2.23,2.68-1.35,4.85-2.13,6.53-2.34,3.53-.45,5.62,1.91,6.27,7.06,.34,2.71,.59,7.41,.75,14.1,.05,1.46,.09,2.86,.12,4.19l.63,19.15Z"/><path d="M275.44,453.96c.27,1.07,.46,2.03,.57,2.89,1.65,13.07-1.34,25.02-8.97,35.86-7.63,10.84-17.4,17.01-29.29,18.52-9.09,1.15-16.86-.82-23.31-5.91-6.46-5.09-10.27-12.26-11.44-21.53-1.33-10.53,1.21-20.14,7.62-28.8s14.64-13.63,24.68-14.9c1.54-.19,3.19-.2,4.96,0-1.39-1.89-2.17-3.54-2.35-4.94-.27-2.17,.21-4.34,1.45-6.52,11.15-.49,21.04,4,29.68,13.47,8.15,4.16,16.3,5.73,24.44,4.7,5.29-.67,10.78-3.18,16.48-7.53l4.12,5.34c-6.55,5.93-13.61,9.37-21.16,10.32-5.02,.63-10.85,.32-17.48-.96Zm-16.12-3.82c-3.9-.66-7.58-2.03-11.06-4.11-2.37-.2-4.32-.2-5.86-.02-7.69,.98-14.06,5.3-19.13,12.97-5.07,7.67-7.04,15.93-5.93,24.79,.82,6.42,3.29,11.47,7.4,15.15,4.11,3.68,9,5.17,14.65,4.46,7.64-.97,13.73-5.66,18.27-14.06,4.54-8.4,6.13-17.94,4.79-28.61-.48-3.71-1.52-7.23-3.13-10.56Z"/><path d="M350.18,468c1.5,2.06,2.36,3.93,2.57,5.6,.56,4.43-2.56,9.8-9.37,16.1-6.81,6.3-13.28,9.85-19.43,10.62-5.43,.69-10.15-1.17-14.18-5.58-4.03-4.41-6.52-10.43-7.49-18.07-1.07-8.5-.37-20.88,2.13-37.13l1.68-11.79-11.46,1.45c-4.79,.61-8.53,1.77-11.2,3.48,2.02-5.09,3.81-8.36,5.38-9.79,1.56-1.43,4.4-2.41,8.52-2.93l10.24-1.29,.76-4.86c1.2-7.25,3.08-12.36,5.64-15.33,2.56-2.97,6.74-4.83,12.53-5.56,.68-.09,1.77-.18,3.27-.28-2.95,4.98-5.65,13.06-8.1,24.24l35.81-4.53c6.29-.79,10.97-2.22,14.07-4.27-.54,4.78-1.67,7.99-3.36,9.64-1.7,1.65-5.1,2.8-10.21,3.45l-38.11,4.82c-.26,1.55-.46,2.7-.6,3.45-3.12,19.32-4.07,33.73-2.87,43.22,1.33,10.49,5.76,15.26,13.32,14.3,3.89-.49,7.92-2.68,12.09-6.56,4.17-3.88,6.97-8.02,8.39-12.43Z"/><path d="M413.29,432.46l-1.36,.17c-6.74,.85-12.4,3.27-17,7.25,.35-5.92,1.48-9.8,3.39-11.63,1.9-1.83,6.22-3.16,12.96-4.02l2.58-.33,.82-11.47c1.11-15.57,4.56-27.13,10.36-34.66,7.18-9.36,15.76-14.67,25.75-15.93,3.89-.49,7.35,0,10.38,1.44,3.03,1.45,4.71,3.47,5.04,6.05,.33,2.62-2.2,6-7.61,10.13-2.5-6.71-6.65-9.7-12.43-8.97-10.26,1.3-16.2,13.39-17.8,36.29l-1.08,15.43,23.67-2.99c10.81-1.37,18.67-2.96,23.58-4.77-1.56,5.07-3.67,8.26-6.33,9.59-2.66,1.32-9.75,2.71-21.28,4.17l-20.28,2.56-4.17,59.65c-.42,5.75-.37,10.73,.17,14.93,.34,2.67,1.23,5.01,2.68,7.03-4.33,2.06-7.72,3.25-10.16,3.56-3.75,.47-5.89-1.39-6.43-5.6-.42-3.3-.36-8.82,.18-16.56l4.37-61.33Z"/><path d="M526.64,422.2c.27,1.07,.46,2.03,.57,2.89,1.65,13.07-1.34,25.02-8.97,35.86-7.63,10.84-17.39,17.01-29.29,18.52-9.09,1.15-16.86-.82-23.31-5.91-6.45-5.09-10.27-12.27-11.44-21.53-1.33-10.53,1.21-20.13,7.62-28.8,6.41-8.67,14.64-13.63,24.68-14.9,1.54-.19,3.19-.2,4.96,0-1.39-1.89-2.17-3.54-2.35-4.94-.27-2.17,.21-4.34,1.45-6.52,11.15-.49,21.04,4,29.68,13.47,8.15,4.16,16.3,5.73,24.43,4.7,5.29-.67,10.78-3.18,16.48-7.53l4.12,5.34c-6.55,5.93-13.61,9.37-21.16,10.32-5.02,.63-10.85,.32-17.48-.96Zm-16.12-3.82c-3.9-.66-7.58-2.03-11.06-4.11-2.37-.2-4.32-.2-5.86-.02-7.69,.98-14.06,5.3-19.13,12.97-5.07,7.67-7.04,15.93-5.93,24.79,.82,6.42,3.28,11.47,7.4,15.15,4.11,3.68,9,5.17,14.65,4.46,7.64-.97,13.73-5.66,18.27-14.06,4.54-8.4,6.14-17.94,4.79-28.61-.48-3.71-1.52-7.23-3.13-10.56Z"/><path d="M609.54,420.05c-4.61,13.68-10.25,25.03-16.92,34.05s-13.05,13.92-19.16,14.69c-4.93,.62-9.15-.61-12.66-3.7-3.52-3.09-5.62-7.41-6.33-12.97-.9-7.14-.16-20.54,2.22-40.21,.66-5.32,.9-8.65,.73-10.01-.17-1.36-.79-2.77-1.85-4.24l9.35-1.25c4.02-.51,6.23,.79,6.63,3.91,.25,1.94-.36,7.68-1.82,17.21-.46,2.86-.75,4.82-.84,5.88l-.5,4.26c-.95,8.51-1.14,14.93-.6,19.26,.84,6.68,3.57,9.72,8.18,9.14,7.55-.95,15.95-11.5,25.21-31.65,7.57-16.4,10.95-27.83,10.13-34.29-.11-.9-.5-1.77-1.16-2.6,3.58-1.51,6.65-2.42,9.23-2.75,3.98-.5,6.12,.46,6.43,2.9,.07,.59,0,1.47-.22,2.64-.1,.7-.32,2.4-.66,5.1-.03,.51-.25,2.39-.66,5.65-.31,2.28-.51,4.1-.62,5.44l-.27,3.33c-.55,7.63-.42,14.7,.41,21.19,1.25,9.92,4.28,14.58,9.07,13.98,10.58-1.34,22.12-17.92,34.64-49.75l6.12,2.66c-14.03,38-28.73,57.97-44.1,59.92-10.35,1.31-16.67-7.01-18.94-24.96-.43-3.39-.79-7.67-1.07-12.82Z"/><path d="M681.26,428.69c11.76-35.98,24.03-54.79,36.83-56.4,9.99-1.26,16.25,8.05,18.76,27.94l1.17,8.19c1.2,9.5,2.52,16,3.95,19.52,1.43,3.52,3.44,5.11,6.01,4.79,3.89-.49,7.92-4.15,12.08-10.97,4.17-6.82,10.65-20.29,19.45-40.43l6.12,2.6c-7.58,20.02-14.72,35.07-21.44,45.16-6.72,10.08-13.2,15.52-19.44,16.31-5.74,.73-10.13-1.54-13.16-6.81-3.03-5.27-5.41-14.75-7.15-28.45l-.81-5.82c-.94-7.42-2.07-12.57-3.4-15.45s-3.17-4.18-5.52-3.88c-5.97,.75-14.07,13.88-24.3,39.38-2.52,6.25-4.15,10.26-4.88,12.06-2.72,6.5-3.9,11.1-3.56,13.82,.14,1.08,.56,2.09,1.28,3.01-2.49,1.42-4.63,2.24-6.44,2.47-4.57,.58-7.17-1.67-7.81-6.73-.18-1.45-.42-8.03-.71-19.75l-.37-14.91c-.11-6.33-.38-11.21-.82-14.64-.61-4.79-2.17-8.43-4.69-10.92,.91-.44,2.42-1.18,4.54-2.23,2.68-1.35,4.85-2.13,6.53-2.34,3.53-.45,5.62,1.91,6.27,7.06,.34,2.71,.59,7.41,.75,14.1,.05,1.46,.09,2.86,.12,4.19l.63,19.14Z"/><path d="M826.22,394.79c-5.45,13.6-11.55,24.6-18.32,33.01-6.77,8.41-13.18,13-19.24,13.77-4.84,.61-8.95-1.02-12.33-4.88-3.38-3.87-5.52-9.35-6.42-16.45-1.81-14.29,.86-27.34,8-39.15,7.14-11.81,16.34-18.43,27.6-19.85,6.74-.85,14.35,.37,22.86,3.66l2.64-37.41c-3.88,1.32-7.12,2.15-9.75,2.48-3.98,.5-7.01-.07-9.11-1.72-2.09-1.65-4.03-5-5.82-10.03,3.54,1.8,8.67,2.28,15.41,1.43,8.36-1.06,16.24-3.62,23.63-7.67l-5.39,76.2c-.62,8.53-.56,15.71,.18,21.54,.98,7.78,3.69,11.39,8.12,10.83,4.34-.55,10.92-6.55,19.74-18,8.82-11.45,15.89-23.16,21.22-35.14l6.01,2.82c-6.18,15.76-14.57,30.21-25.15,43.35-10.58,13.14-19.46,20.17-26.65,21.08-9.13,1.15-14.63-5.59-16.48-20.24-.77-6.06-1.02-12.59-.76-19.61Zm1.32-18.43c-10.19-5-18.4-7.11-24.64-6.32-6.78,.86-12.12,5.76-16.02,14.7-3.9,8.95-5.13,19.09-3.7,30.44,1.16,9.13,4.72,13.32,10.68,12.57,6.42-.81,16.97-16.57,31.64-47.27,.25-.54,.93-1.91,2.03-4.11Z"/></g></svg>