<?xml version="1.0" encoding="UTF-8"?><svg id="Layer_1" xmlns="http://www.w3.org/2000/svg" viewBox="0 0 941.18 629.41"><defs><style>.cls-1{fill:#fff;}.cls-2{fill:#c01722;}</style></defs><g><path class="cls-2" d="M46.03,17.85H903.75c13.87,0,25.13,11.26,25.13,25.13V590.71c0,13.87-11.26,25.13-25.13,25.13H46.03c-13.87,0-25.13-11.26-25.13-25.13V42.99c0-13.87,11.26-25.13,25.13-25.13Z"/><path class="cls-2" d="M903.75,18.86c13.3,0,24.13,10.82,24.13,24.13V590.71c0,13.3-10.82,24.13-24.13,24.13H46.03c-13.3,0-24.13-10.82-24.13-24.13V42.99c0-13.3,10.82-24.13,24.13-24.13H903.75m0-2.01H46.03c-14.44,0-26.14,11.7-26.14,26.14V590.71c0,14.44,11.7,26.14,26.14,26.14H903.75c14.44,0,26.14-11.7,26.14-26.14V42.99c0-14.44-11.7-26.14-26.14-26.14h0Z"/></g><rect class="cls-1" x="24.89" y="139.86" width="900" height="440.16" rx="9.8" ry="9.8"/><path class="cls-1" d="M119.31,55.28l-12.55,7.69c-4.18-6.33-10.72-10.09-18.93-10.09-13.23,0-23.11,9.73-23.11,23.95s10.2,23.95,23.11,23.95c8.16,0,14.69-3.61,19.09-10.04l11.92,8.58c-6.59,9.52-17.47,15.48-30.9,15.48-22.59,0-38.43-15.95-38.43-37.96s15.84-37.96,38.43-37.96c13.54,0,25.36,6.22,31.38,16.42Z"/><path class="cls-1" d="M165.42,62.49l-2.04,13.54c-2.25-.99-5.49-1.62-8.26-1.62-6.27,0-10.67,3.87-10.67,11.4v27.61h-13.65V62.76h13.23v5.54c3.19-4.81,8-6.9,14.28-6.9,2.93,0,5.23,.42,7.11,1.1Z"/><path class="cls-1" d="M174.72,113.43V62.76h13.65v50.67h-13.65Z"/><path class="cls-1" d="M230.27,113.43c-19.37,.06-28.82-8.01-28.82-22.95V37.39h15.75v17.08h13.1v13.76h-13.1v20.99c0,7.12,4.82,9.79,13.36,9.79l-.29,14.41Z"/><path class="cls-1" d="M241.47,113.43V62.76h13.65v50.67h-13.65Z"/><path class="cls-1" d="M313.58,70.97l-9.83,8.21c-3.14-3.35-6.38-5.07-10.82-5.07-7.06,0-12.71,5.54-12.71,13.96s5.6,13.96,12.65,13.96c4.39,0,8.1-1.99,11.03-5.12l9.73,8.31c-4.81,6.12-11.82,9.52-20.34,9.52-16.16,0-26.98-11.35-26.98-26.67s10.82-26.67,26.98-26.67c8.52,0,15.64,3.45,20.29,9.57Z"/><path class="cls-1" d="M358.96,113.43v-5.6c-3.35,4.13-8.21,6.9-15.16,6.9-14.01,0-24.52-11.45-24.52-26.67s10.51-26.67,24.52-26.67c6.96,0,11.82,2.77,15.16,6.95v-5.6h13.33v50.67h-13.33Zm-25.73-25.36c0,7.74,5.07,13.96,13.07,13.96s13.07-5.96,13.07-13.96-5.28-13.96-13.07-13.96-13.07,6.22-13.07,13.96Z"/><path class="cls-1" d="M386.62,113.43V38.13h13.65V113.43h-13.65Z"/><g><path d="M270.59,384.78c-14.01,32.98-29.99,59.63-47.94,79.95-17.96,20.32-35.65,31.67-53.07,34.06-14.5,1.98-26.93-1.37-37.3-10.05-10.37-8.68-16.64-20.95-18.8-36.79-2.86-20.88,2.43-40.14,15.85-57.77,13.43-17.64,30.62-27.89,51.57-30.75,8.49-1.16,15.68-.48,21.57,2.04,5.89,2.52,9.18,6.3,9.87,11.33,1.13,8.26-5.05,15.42-18.53,21.47,.5-1.9,.64-3.68,.42-5.34-1.66-12.17-8.96-17.37-21.87-15.6-11.19,1.53-20.65,9.19-28.36,22.99-7.72,13.79-10.56,28.13-8.52,43,1.65,12.09,6.14,21.52,13.45,28.29,7.31,6.77,16,9.46,26.07,8.08,27.64-3.78,56.09-36.86,85.36-99.24l10.23,4.34Z"/><path d="M339.22,399.04c-6.9,21.22-16.45,39.76-28.64,55.62-12.19,15.86-23.52,24.51-33.97,25.94-7.97,1.09-14.83-1.59-20.58-8.03-5.74-6.44-9.42-15.56-11.04-27.35-3.21-23.51,1.08-45.17,12.88-65,11.8-19.82,27.06-31.02,45.79-33.58,11.35-1.55,24.13,.3,38.33,5.55,1-7.25,8.48-11.83,22.45-13.74,.9-.12,2.37-.28,4.41-.49-3.39,7.12-5.43,16.51-6.13,28.15l-.61,9.84c-.72,10.96-.1,23.58,1.85,37.85,2.25,16.45,7.21,24.15,14.87,23.1,8.11-1.11,18.28-9.4,30.51-24.89,12.23-15.48,23.71-34.63,34.44-57.45l9.62,4.88c-10.51,26.69-23.56,49.53-39.17,68.54-15.61,19-29.84,29.39-42.68,31.14-16.22,2.22-26.18-10.19-29.88-37.23-.77-5.63-1.58-13.25-2.44-22.85Zm1.61-27.65c-17.2-8.13-31.03-11.48-41.48-10.05-11.36,1.55-20.23,9.79-26.62,24.7-6.39,14.92-8.29,31.83-5.7,50.76,2.08,15.17,8.08,22.08,18,20.72,10.75-1.47,28.1-27.87,52.03-79.19,.29-.65,1.55-2.97,3.76-6.94Z"/><path d="M461.98,451.57c-4.8,3.1-8.75,4.87-11.84,5.29-7.7,1.05-12.01-1.8-12.93-8.56-.47-3.45-.3-12.24,.53-26.35l1.8-28.82c1.17-17.15,1.21-29.74,.11-37.77-.6-4.35-2.33-7.83-5.21-10.42,7.52-3.78,13.75-6.01,18.71-6.69,5.26-.72,8.34,2.26,9.26,8.95,.57,4.13,.19,15.24-1.14,33.32l-1.89,33.66c10.41-29.5,21.75-52.88,34.03-70.13,12.28-17.25,24.27-26.67,35.98-28.28,4.13-.56,7.85,.13,11.18,2.09s5.22,4.62,5.68,8c.72,5.26-4.03,13.02-14.26,23.3-3.66-5.54-8.12-7.96-13.37-7.24-9.53,1.3-20.29,13.1-32.29,35.4-7.43,13.87-13.6,27.97-18.51,42.3-4.92,14.33-6.98,24.35-6.2,30.06l.37,1.9Z"/><path d="M645.72,360.1c-8.83,22.71-18.8,41.12-29.92,55.22-11.12,14.11-21.71,21.85-31.77,23.22-8.04,1.1-14.9-1.54-20.59-7.92-5.69-6.38-9.34-15.46-10.96-27.25-3.25-23.73,.97-45.49,12.65-65.26,11.68-19.77,26.87-30.93,45.57-33.49,11.19-1.53,23.88,.37,38.08,5.69l3.76-62.27c-6.42,2.27-11.81,3.7-16.17,4.29-6.61,.9-11.67,0-15.18-2.71-3.51-2.71-6.79-8.24-9.84-16.59,5.91,2.94,14.46,3.65,25.65,2.12,13.89-1.9,26.95-6.29,39.17-13.16l-7.67,126.84c-.89,14.2-.67,26.14,.66,35.83,1.77,12.92,6.33,18.88,13.69,17.87,7.21-.99,18.05-11.08,32.53-30.27,14.48-19.2,26.04-38.8,34.71-58.8l10.04,4.59c-10.02,26.31-23.72,50.49-41.09,72.53-17.38,22.04-32.04,33.88-43.98,35.51-15.17,2.08-24.42-9.05-27.75-33.39-1.38-10.06-1.91-20.93-1.59-32.61Zm1.89-30.67c-17.03-8.15-30.73-11.52-41.09-10.1-11.27,1.54-20.07,9.79-26.4,24.73-6.33,14.95-8.21,31.84-5.63,50.7,2.08,15.17,8.07,22.08,17.98,20.72,10.66-1.46,27.94-27.85,51.84-79.16,.41-.9,1.52-3.19,3.31-6.88Z"/><path d="M802.98,365.33c3.33,5.36,5.36,10.63,6.06,15.81,1.57,11.49-1.87,22.16-10.31,32-8.45,9.84-19.13,15.64-32.05,17.41-7.59,1.04-14.31-.03-20.18-3.21-5.87-3.18-9.18-7.51-9.92-12.99-.8-5.86,2.05-12.29,8.55-19.3,6.5-7.01,17.79-15.82,33.86-26.44l-11-13.3c-13.38-16.15-20.75-29.18-22.1-39.1-1.95-14.27,4.77-26.9,20.18-37.88,10.75,2.51,16.53,6.73,17.34,12.66,1.15,8.41-4.24,17.38-16.18,26.89l16.08,21.9,12.52,16.88c13.17-10.52,22.99-19.34,29.43-26.46,6.45-7.12,14.36-17.82,23.73-32.11l9.77,4.29c-13.19,23.84-31.78,44.82-55.77,62.95Zm-17.77,12.76c-20.46,14.89-30.24,25.6-29.35,32.13,.84,6.16,5.73,8.63,14.67,7.4,6.61-.9,11.67-3.88,15.19-8.91,3.52-5.03,4.8-11.08,3.83-18.14-.58-4.21-2.03-8.37-4.35-12.49Z"/></g><rect class="cls-1" x="174.72" y="37.39" width="13.65" height="13.65"/><rect class="cls-1" x="241.47" y="37.39" width="13.65" height="13.65"/></svg>